<svg id="Layer_1" data-name="Layer 1" xmlns="http://www.w3.org/2000/svg" viewBox="0 0 128.57 14"><defs><style>.cls-1{fill:#4a4a4a;}</style></defs><title>XAF</title><path class="cls-1" d="M2.82,2.88A2.37,2.37,0,0,0,.75,3.94,5,5,0,0,0,0,6.88,4.47,4.47,0,0,0,.82,9.76a2.74,2.74,0,0,0,2.26,1,4,4,0,0,0,2.09-.52V8.75a3.48,3.48,0,0,1-1.81.55,1.33,1.33,0,0,1-1.1-.49,2.51,2.51,0,0,1-.41-1.52H5.5v-1a4.06,4.06,0,0,0-.71-2.54A2.39,2.39,0,0,0,2.82,2.88ZM1.87,6a2.83,2.83,0,0,1,.3-1.28.75.75,0,0,1,.64-.41.73.73,0,0,1,.66.43A2.77,2.77,0,0,1,3.72,6Zm8.4-.45,2.29,5.12H10.62L9.19,7.05,7.87,10.64H5.93l2.29-5.2L6.1.64H8L9.3,3.93,10.44.64h2Zm6.51-2.64A1.79,1.79,0,0,0,15.13,4h-.08l-.31-1H13.33V14h1.83V10.89c0-.13,0-.5-.11-1.12h.1a2.1,2.1,0,0,0,.71.78,1.66,1.66,0,0,0,.87.22,1.86,1.86,0,0,0,1.66-1A5.87,5.87,0,0,0,19,6.82a5.91,5.91,0,0,0-.59-2.91A1.8,1.8,0,0,0,16.78,2.88Zm-.6,6.33a.81.81,0,0,1-.79-.58,5.08,5.08,0,0,1-.24-1.83V6.56a4.21,4.21,0,0,1,.25-1.64.8.8,0,0,1,.77-.5A.79.79,0,0,1,16.9,5a5,5,0,0,1,.24,1.78C17.14,8.4,16.82,9.21,16.18,9.21Zm7.34-6.33a2.11,2.11,0,0,1,.66.1L24,4.74a1.75,1.75,0,0,0-.5-.06,1.16,1.16,0,0,0-1,.52,2.67,2.67,0,0,0-.36,1.52v3.92H20.28V3h1.49L22,4.21H22a2.64,2.64,0,0,1,.66-1A1.18,1.18,0,0,1,23.52,2.88Zm4,0a2.4,2.4,0,0,0-2.08,1.06,5,5,0,0,0-.74,2.94,4.47,4.47,0,0,0,.82,2.88,2.73,2.73,0,0,0,2.25,1,4,4,0,0,0,2.1-.52V8.75a3.54,3.54,0,0,1-1.82.55A1.31,1.31,0,0,1,27,8.81a2.44,2.44,0,0,1-.42-1.52h3.66v-1a4,4,0,0,0-.72-2.54A2.37,2.37,0,0,0,27.55,2.88ZM26.6,6a2.84,2.84,0,0,1,.29-1.28.76.76,0,0,1,.65-.41.72.72,0,0,1,.65.43A2.65,2.65,0,0,1,28.44,6Zm8.76,1.54a2.29,2.29,0,0,1,.16.9,2.32,2.32,0,0,1-.65,1.74,2.73,2.73,0,0,1-1.93.62,3.51,3.51,0,0,1-1.86-.44V8.75a3.53,3.53,0,0,0,.87.43,2.94,2.94,0,0,0,.89.17.92.92,0,0,0,.65-.21.75.75,0,0,0,.22-.55A.93.93,0,0,0,33.48,8a4.13,4.13,0,0,0-.86-.63,3.44,3.44,0,0,1-1.18-1A2.37,2.37,0,0,1,31.08,5a1.91,1.91,0,0,1,.66-1.53,2.75,2.75,0,0,1,1.83-.57,3.72,3.72,0,0,1,1.91.53l-.6,1.31a2.68,2.68,0,0,0-1.28-.4.68.68,0,0,0-.52.18A.65.65,0,0,0,32.9,5a.76.76,0,0,0,.22.54,3.76,3.76,0,0,0,.8.6,5,5,0,0,1,1,.73A2.15,2.15,0,0,1,35.36,7.51Zm5.24,0a2.49,2.49,0,0,1,.16.9,2.29,2.29,0,0,1-.66,1.74,2.69,2.69,0,0,1-1.92.62,3.55,3.55,0,0,1-1.87-.44V8.75a3.6,3.6,0,0,0,.88.43,2.94,2.94,0,0,0,.89.17.9.9,0,0,0,.64-.21.71.71,0,0,0,.22-.55A.88.88,0,0,0,38.71,8a4,4,0,0,0-.85-.63,3.58,3.58,0,0,1-1.19-1A2.37,2.37,0,0,1,36.31,5,1.88,1.88,0,0,1,37,3.45a2.71,2.71,0,0,1,1.83-.57,3.68,3.68,0,0,1,1.9.53l-.59,1.31a2.75,2.75,0,0,0-1.29-.4.7.7,0,0,0-.52.18.69.69,0,0,0-.17.46.8.8,0,0,0,.21.54,3.89,3.89,0,0,0,.81.6,4.84,4.84,0,0,1,1,.73A2.18,2.18,0,0,1,40.6,7.51Zm3-6.91-2.48,10H43l.58-2.53h2.6l.57,2.53h1.87L46.13.6Zm.32,5.87c.39-1.68.62-2.76.72-3.23s.16-.91.22-1.3c0,.19.09.57.2,1.14s.19.92.22,1.06l.53,2.33Zm8.9-3.59A1.78,1.78,0,0,0,51.19,4h-.08l-.32-1H49.38V14h1.83V10.89c0-.13,0-.5-.1-1.12h.09a2.19,2.19,0,0,0,.71.78,1.66,1.66,0,0,0,.87.22,1.85,1.85,0,0,0,1.66-1,5.77,5.77,0,0,0,.61-2.9,5.91,5.91,0,0,0-.59-2.91A1.79,1.79,0,0,0,52.83,2.88Zm-.6,6.33a.81.81,0,0,1-.79-.58A5.08,5.08,0,0,1,51.2,6.8V6.56a4.21,4.21,0,0,1,.25-1.64.8.8,0,0,1,.77-.5A.78.78,0,0,1,53,5a5,5,0,0,1,.24,1.78C53.19,8.4,52.87,9.21,52.23,9.21Zm7.55-6.33A1.79,1.79,0,0,0,58.13,4h-.08l-.31-1H56.33V14h1.83V10.89c0-.13,0-.5-.11-1.12h.1a2.17,2.17,0,0,0,.7.78,1.72,1.72,0,0,0,.88.22,1.86,1.86,0,0,0,1.66-1A5.87,5.87,0,0,0,62,6.82a5.91,5.91,0,0,0-.59-2.91A1.8,1.8,0,0,0,59.78,2.88Zm-.6,6.33a.81.81,0,0,1-.79-.58,5.08,5.08,0,0,1-.24-1.83V6.56a4.21,4.21,0,0,1,.25-1.64A.79.79,0,0,1,59.9,5a5,5,0,0,1,.24,1.78C60.14,8.4,59.82,9.21,59.18,9.21ZM66.84.64h4.48V2.25H68.69V5h2.45V6.63H68.69v4H66.84Zm8.87,2.24a2.05,2.05,0,0,1,.65.1l-.21,1.76a1.7,1.7,0,0,0-.5-.06,1.16,1.16,0,0,0-1,.52,2.75,2.75,0,0,0-.35,1.52v3.92H72.46V3H74l.2,1.19h.06a2.76,2.76,0,0,1,.66-1A1.21,1.21,0,0,1,75.71,2.88Zm4.06,0a4.53,4.53,0,0,0-2.47.72l.63,1.26a3.11,3.11,0,0,1,1.57-.53c.62,0,.92.35.92,1.06v.55l-1,0a3.12,3.12,0,0,0-2,.65,2.25,2.25,0,0,0-.66,1.78,2.8,2.8,0,0,0,.48,1.75,1.59,1.59,0,0,0,1.33.63,2.08,2.08,0,0,0,1.08-.25,2.63,2.63,0,0,0,.84-.92h0l.36,1h1.33V5.52a2.82,2.82,0,0,0-.63-2A2.37,2.37,0,0,0,79.77,2.86Zm.65,4.85a2.08,2.08,0,0,1-.29,1.19.92.92,0,0,1-.8.45c-.45,0-.67-.31-.67-.94a1.41,1.41,0,0,1,.29-1,1.29,1.29,0,0,1,.91-.35l.56,0ZM92.58,3.59a3.47,3.47,0,0,1,.53,2.08v5H91.27V6.1c0-1.12-.27-1.68-.82-1.68a.9.9,0,0,0-.87.6,5.3,5.3,0,0,0-.25,1.92v3.7H87.49V6.1q0-1.68-.84-1.68a.89.89,0,0,0-.85.6,5.1,5.1,0,0,0-.27,2v3.66H83.71V3h1.45l.21,1h.12a1.8,1.8,0,0,1,.75-.85,2,2,0,0,1,1-.27A1.81,1.81,0,0,1,89.11,4.2h.07a2,2,0,0,1,1.87-1.32A1.77,1.77,0,0,1,92.58,3.59Zm4.55-.71a2.4,2.4,0,0,0-2.08,1.06,5.09,5.09,0,0,0-.74,2.94,4.47,4.47,0,0,0,.82,2.88,2.73,2.73,0,0,0,2.25,1,4,4,0,0,0,2.1-.52V8.75a3.51,3.51,0,0,1-1.81.55,1.33,1.33,0,0,1-1.1-.49,2.57,2.57,0,0,1-.42-1.52h3.66v-1a4,4,0,0,0-.72-2.54A2.36,2.36,0,0,0,97.13,2.88ZM96.18,6a2.83,2.83,0,0,1,.3-1.28.74.74,0,0,1,.64-.41.71.71,0,0,1,.65.43A2.76,2.76,0,0,1,98,6ZM108.43,3h1.78l-1.53,7.62h-2.36l-.76-4.43-.27-1.86h0c-.07.6-.13,1-.17,1.31s-.33,1.93-.87,5H101.9L100.38,3h1.82l.7,4.2c.08.46.16,1.14.23,2h0c0-.24,0-.61.09-1.1s.1-.81.12-1L104.13,3h2.34l.74,4.2a16.81,16.81,0,0,1,.23,2h0a19.9,19.9,0,0,1,.24-2Zm5.4-.14a2.61,2.61,0,0,0-2.19,1,4.76,4.76,0,0,0-.78,2.9,5.63,5.63,0,0,0,.36,2.1,3,3,0,0,0,1,1.37,2.59,2.59,0,0,0,1.55.48,2.56,2.56,0,0,0,2.17-1,4.7,4.7,0,0,0,.79-2.91A4.71,4.71,0,0,0,116,3.94,2.54,2.54,0,0,0,113.83,2.88Zm0,6.34a.86.86,0,0,1-.83-.61,4.6,4.6,0,0,1-.26-1.79A4.53,4.53,0,0,1,113,5a.88.88,0,0,1,1.66,0,4.5,4.5,0,0,1,.27,1.79C114.91,8.42,114.54,9.22,113.81,9.22Zm7.48-6.34A2.16,2.16,0,0,1,122,3l-.22,1.76a1.63,1.63,0,0,0-.49-.06,1.14,1.14,0,0,0-1,.52,2.67,2.67,0,0,0-.36,1.52v3.92H118V3h1.5l.21,1.19h.06a2.76,2.76,0,0,1,.65-1A1.22,1.22,0,0,1,121.29,2.88Zm7.28,7.76h-1.91l-1.37-3.22-.71.64v2.58h-1.82V0h1.82V5l-.08,1.53h0l.46-.91L126.51,3h1.93l-1.93,3.13Z"/></svg>